<svg id="background-circles" xmlns="http://www.w3.org/2000/svg" xmlns:xlink="http://www.w3.org/1999/xlink" width="500" height="500" viewBox="0 0 500 500">
  <defs>
    <linearGradient id="gradient-white1" x1="52.921" y1="240.539" x2="474" y2="240.539" gradientUnits="userSpaceOnUse">
      <stop offset="0.05" stop-color="#fff" stop-opacity="0"/>
      <stop offset="0.195" stop-color="#fff" stop-opacity="0.224"/>
      <stop offset="0.387" stop-color="#fff" stop-opacity="0.496"/>
      <stop offset="0.561" stop-color="#fff" stop-opacity="0.713"/>
      <stop offset="0.71" stop-color="#fff" stop-opacity="0.869"/>
      <stop offset="0.828" stop-color="#fff" stop-opacity="0.965"/>
      <stop offset="0.9" stop-color="#fff"/>
      <stop offset="1" stop-color="#fff"/>
    </linearGradient>
    <linearGradient id="gradient-white2" x1="26" y1="259.458" x2="447.079" y2="259.458" gradientUnits="userSpaceOnUse">
      <stop offset="0" stop-color="#fff"/>
      <stop offset="0.1" stop-color="#fff"/>
      <stop offset="0.172" stop-color="#fff" stop-opacity="0.965"/>
      <stop offset="0.29" stop-color="#fff" stop-opacity="0.869"/>
      <stop offset="0.439" stop-color="#fff" stop-opacity="0.713"/>
      <stop offset="0.613" stop-color="#fff" stop-opacity="0.496"/>
      <stop offset="0.805" stop-color="#fff" stop-opacity="0.224"/>
      <stop offset="0.95" stop-color="#fff" stop-opacity="0"/>
    </linearGradient>
    <filter id="filterblur" x="-20%" y="-20%" width="140%" height="140%" filterUnits="objectBoundingBox" primitiveUnits="userSpaceOnUse" color-interpolation-filters="sRGB">
    	<feGaussianBlur stdDeviation="3 3" x="0%" y="0%" width="100%" height="100%" in="SourceGraphic" edgeMode="none" result="blur"/>
    </filter>
  </defs>
  <title>background-circles</title>
  <g id="circles" filter="url(#filterblur)" opacity="0.3">
    <path id="circle-B" d="M263.461,30C147.18,30,52.921,124.264,52.921,240.54s94.259,210.539,210.54,210.539S474,356.814,474,240.54,379.735,30,263.461,30Zm0,359.718A149.176,149.176,0,1,1,412.633,240.54,149.175,149.175,0,0,1,263.461,389.718Z" fill="url(#gradient-white1)"/>
    <g id="circle-A">
      <path d="M87.355,259.461A149.179,149.179,0,1,1,236.539,408.633,149.177,149.177,0,0,1,87.355,259.461M236.539,470c116.275,0,210.539-94.258,210.539-210.539S352.814,48.915,236.539,48.915,26,143.18,26,259.461,120.253,470,236.539,470" fill="url(#gradient-white2)"/>
    </g>
  </g>
</svg>
