<svg id="heart-stroke-big" xmlns="http://www.w3.org/2000/svg" width="69" height="62" viewBox="0 0 69 62">
  <title>heart-stroke-big</title>
  <path d="M50.921,1a16.755,16.755,0,0,1,12,5.1,18.227,18.227,0,0,1,.205,25.112h0L34.5,61,5.871,31.208h0A18.227,18.227,0,0,1,6.076,6.1a16.691,16.691,0,0,1,24.212.212A17.824,17.824,0,0,1,34.5,13.737a17.824,17.824,0,0,1,4.212-7.429A16.766,16.766,0,0,1,50.921,1m0-1A17.689,17.689,0,0,0,37.987,5.62,18.829,18.829,0,0,0,34.5,10.828a18.829,18.829,0,0,0-3.487-5.209A17.691,17.691,0,0,0,5.362,5.4a19.257,19.257,0,0,0-.217,26.5l.016.016L33.779,61.693a1,1,0,0,0,1.442,0L63.84,31.911l.015-.016a19.257,19.257,0,0,0-.217-26.5A17.707,17.707,0,0,0,50.921,0Z" fill="#de4a5b"/>
</svg>
