<svg xmlns="http://www.w3.org/2000/svg" xmlns:xlink="http://www.w3.org/1999/xlink" width="38" height="38" viewBox="0 0 38 38">
  <defs>
    <symbol id="icon-twitter-M" data-name="icon-twitter-M" viewBox="0 0 21 17.254">
      <path d="M20.5,2.4242a8.2046,8.2046,0,0,1-2.3566.646A4.1157,4.1157,0,0,0,19.9476.8a8.2219,8.2219,0,0,1-2.6059.9955A4.1071,4.1071,0,0,0,10.35,5.5385,11.65,11.65,0,0,1,1.8925,1.2511a4.1075,4.1075,0,0,0,1.27,5.4782,4.0813,4.0813,0,0,1-1.8582-.5133l-.0006.0516A4.1059,4.1059,0,0,0,4.5949,10.291a4.1138,4.1138,0,0,1-1.8531.07,4.1074,4.1074,0,0,0,3.833,2.8494A8.233,8.233,0,0,1,1.479,14.9675,8.2311,8.2311,0,0,1,.5,14.91a11.6112,11.6112,0,0,0,6.29,1.8439A11.5951,11.5951,0,0,0,18.4645,5.0789q0-.2669-.0119-.5307A8.3335,8.3335,0,0,0,20.5,2.4242Z" fill="none" stroke="#2e2265" stroke-linecap="round" stroke-linejoin="round"/>
    </symbol>
  </defs>
  <title>icon-twitter-M</title>
  <use width="21" height="17.2537" transform="translate(9.5324 10.6563)" xlink:href="#icon-twitter-M"/>
</svg>
