<svg id="logo-afd" xmlns="http://www.w3.org/2000/svg" xmlns:xlink="http://www.w3.org/1999/xlink" width="145" height="60" viewBox="0 0 145 60">
  <defs>
    <linearGradient id="gradient-whiteA" data-name="gradient whiteA" x1="4.081" y1="28.71" x2="61.501" y2="28.71" gradientUnits="userSpaceOnUse">
      <stop offset="0.05" stop-color="#fff" stop-opacity="0"/>
      <stop offset="0.195" stop-color="#fff" stop-opacity="0.224"/>
      <stop offset="0.387" stop-color="#fff" stop-opacity="0.496"/>
      <stop offset="0.561" stop-color="#fff" stop-opacity="0.713"/>
      <stop offset="0.71" stop-color="#fff" stop-opacity="0.869"/>
      <stop offset="0.828" stop-color="#fff" stop-opacity="0.965"/>
      <stop offset="0.9" stop-color="#fff"/>
      <stop offset="1" stop-color="#fff"/>
    </linearGradient>
    <linearGradient id="gradient-whiteB" data-name="gradient whiteB" x1="0.377" y1="31.29" x2="57.797" y2="31.29" gradientUnits="userSpaceOnUse">
      <stop offset="0" stop-color="#fff"/>
      <stop offset="0.1" stop-color="#fff"/>
      <stop offset="0.172" stop-color="#fff" stop-opacity="0.965"/>
      <stop offset="0.29" stop-color="#fff" stop-opacity="0.869"/>
      <stop offset="0.439" stop-color="#fff" stop-opacity="0.713"/>
      <stop offset="0.613" stop-color="#fff" stop-opacity="0.496"/>
      <stop offset="0.805" stop-color="#fff" stop-opacity="0.224"/>
      <stop offset="0.95" stop-color="#fff" stop-opacity="0"/>
    </linearGradient>
  </defs>
  <title>logo-afd-white</title>
  <g id="logo">
    <g id="baseline">
      <path d="M71.952,40.934l-2.177,5.019h.845l.352-.822h2.221l.352.822H74.4l-2.177-5.019Zm-.688,3.516.822-2.049L72.9,44.45Z" fill="#fff"/>
      <path d="M77.454,44.046h1.518v.531a1.66,1.66,0,0,1-1.473.748,1.744,1.744,0,0,1-1.31-.525,1.969,1.969,0,0,1-.014-2.624,1.689,1.689,0,0,1,1.279-.516,1.722,1.722,0,0,1,1.473.777l.576-.471a2.364,2.364,0,0,0-2.042-1.032,2.548,2.548,0,0,0-1.851.736,2.569,2.569,0,0,0,0,3.631,2.548,2.548,0,0,0,1.851.733,2.655,2.655,0,0,0,1.362-.355,2.471,2.471,0,0,0,.942-.946V43.343H77.454Z" fill="#fff"/>
      <polygon points="84.382 45.243 81.838 45.243 81.838 43.68 83.686 43.68 83.686 42.991 81.838 42.991 81.838 41.727 84.292 41.727 84.292 41.017 81.046 41.017 81.046 45.954 84.382 45.954 84.382 45.243" fill="#fff"/>
      <polygon points="86.315 42.617 89.323 46.036 89.592 46.036 89.592 41.017 88.799 41.017 88.799 44.346 85.799 40.935 85.523 40.935 85.523 45.954 86.315 45.954 86.315 42.617" fill="#fff"/>
      <path d="M94.66,45.729a2.283,2.283,0,0,0,.872-.829l-.6-.443a1.786,1.786,0,0,1-2.782.334,1.928,1.928,0,0,1,0-2.611,1.786,1.786,0,0,1,2.782.333l.6-.442a2.335,2.335,0,0,0-.879-.83,2.66,2.66,0,0,0-3.078.431,2.563,2.563,0,0,0,0,3.632,2.686,2.686,0,0,0,3.089.426" fill="#fff"/>
      <polygon points="100.028 45.243 97.484 45.243 97.484 43.68 99.332 43.68 99.332 42.991 97.484 42.991 97.484 41.727 99.938 41.727 99.938 41.017 96.692 41.017 96.692 45.954 100.028 45.954 100.028 45.243" fill="#fff"/>
      <polygon points="104.508 43.919 106.468 43.919 106.468 43.201 104.508 43.201 104.508 41.728 106.887 41.728 106.887 41.017 103.716 41.017 103.716 45.953 104.508 45.953 104.508 43.919" fill="#fff"/>
      <path d="M110.411,43.919a1.436,1.436,0,0,0,.95-1.392,1.4,1.4,0,0,0-.464-1.092,1.739,1.739,0,0,0-1.212-.418h-1.8v4.936h.793V44.047h.9l1.407,1.907h.9Zm-.741-.576h-.995V41.72h.995a.885.885,0,0,1,.643.225.859.859,0,0,1,0,1.174.888.888,0,0,1-.643.224" fill="#fff"/>
      <path d="M117.258,45.953l-2.177-5.019h-.27l-2.176,5.019h.845l.352-.822h2.221l.352.822Zm-3.134-1.5.823-2.049.815,2.049Z" fill="#fff"/>
      <polygon points="119.051 42.617 122.058 46.036 122.326 46.036 122.326 41.017 121.534 41.017 121.534 44.346 118.535 40.935 118.258 40.935 118.258 45.954 119.051 45.954 119.051 42.617" fill="#fff"/>
      <path d="M132.691,45.953h.852l-2.177-5.019h-.27l-2.176,5.019h.845l.352-.822h2.221Zm-2.282-1.5.822-2.049.816,2.049Z" fill="#fff"/>
      <rect x="134.543" y="41.017" width="0.792" height="4.936" fill="#fff"/>
      <path d="M138.785,43.2l-.553-.254a2.576,2.576,0,0,1-.531-.314.48.48,0,0,1-.157-.387.51.51,0,0,1,.217-.446.891.891,0,0,1,.531-.153,1.2,1.2,0,0,1,1.04.6l.553-.428a1.765,1.765,0,0,0-.65-.639,1.838,1.838,0,0,0-.942-.243,1.681,1.681,0,0,0-1.108.371,1.194,1.194,0,0,0-.448.968,1.123,1.123,0,0,0,.3.8,2.663,2.663,0,0,0,.848.569l.547.253a2.376,2.376,0,0,1,.557.33.521.521,0,0,1,.168.411.608.608,0,0,1-.236.5.963.963,0,0,1-.617.186,1.561,1.561,0,0,1-1.293-.784l-.562.426a2.085,2.085,0,0,0,.771.786,2.135,2.135,0,0,0,1.092.284,1.777,1.777,0,0,0,1.185-.393,1.286,1.286,0,0,0,.468-1.036,1.162,1.162,0,0,0-.292-.809,2.751,2.751,0,0,0-.89-.6" fill="#fff"/>
      <polygon points="144.574 45.243 142.031 45.243 142.031 43.68 143.879 43.68 143.879 42.991 142.031 42.991 142.031 41.727 144.484 41.727 144.484 41.017 141.238 41.017 141.238 45.954 144.574 45.954 144.574 45.243" fill="#fff"/>
      <path d="M71.556,49.406H70.008v4.938h1.548a2.73,2.73,0,0,0,1.948-.692,2.531,2.531,0,0,0,0-3.565,2.76,2.76,0,0,0-1.952-.68m1.361,3.733a1.883,1.883,0,0,1-1.369.493H70.8V50.124h.748a1.919,1.919,0,0,1,1.372.476,1.658,1.658,0,0,1,.505,1.267,1.7,1.7,0,0,1-.509,1.272" fill="#fff"/>
      <polygon points="76.191 52.068 78.039 52.068 78.039 51.381 76.191 51.381 76.191 50.116 78.643 50.116 78.643 49.406 75.398 49.406 75.398 54.342 78.734 54.342 78.734 53.632 76.191 53.632 76.191 52.068" fill="#fff"/>
      <path d="M83.836,49.406H82.288v4.938h1.548a2.727,2.727,0,0,0,1.947-.692,2.53,2.53,0,0,0,0-3.565,2.759,2.759,0,0,0-1.952-.68M85.2,53.139a1.883,1.883,0,0,1-1.368.493H83.08V50.124h.748A1.919,1.919,0,0,1,85.2,50.6a1.658,1.658,0,0,1,.505,1.267,1.694,1.694,0,0,1-.509,1.272" fill="#fff"/>
      <polygon points="88.47 52.068 90.317 52.068 90.317 51.381 88.47 51.381 88.47 50.116 90.924 50.116 90.924 49.406 87.677 49.406 87.677 54.342 91.013 54.342 91.013 53.632 88.47 53.632 88.47 52.068" fill="#fff"/>
      <polygon points="94.051 52.839 92.63 49.406 91.74 49.406 93.916 54.425 94.185 54.425 96.362 49.406 95.472 49.406 94.051 52.839" fill="#fff"/>
      <polygon points="98.087 52.068 99.935 52.068 99.935 51.381 98.087 51.381 98.087 50.116 100.541 50.116 100.541 49.406 97.295 49.406 97.295 54.342 100.631 54.342 100.631 53.632 98.087 53.632 98.087 52.068" fill="#fff"/>
      <polygon points="102.497 49.406 101.704 49.406 101.704 54.342 104.755 54.342 104.755 53.632 102.497 53.632 102.497 49.406" fill="#fff"/>
      <path d="M107.825,49.324a2.527,2.527,0,0,0-1.836.736,2.566,2.566,0,0,0,0,3.629,2.655,2.655,0,0,0,3.672,0,2.547,2.547,0,0,0,0-3.629,2.543,2.543,0,0,0-1.836-.736m1.275,3.856a1.811,1.811,0,0,1-2.539,0,1.813,1.813,0,0,1-.5-1.313,1.791,1.791,0,0,1,.5-1.3,1.813,1.813,0,0,1,2.536,0,1.786,1.786,0,0,1,.509,1.3,1.809,1.809,0,0,1-.505,1.313" fill="#fff"/>
      <path d="M114.6,49.825a1.74,1.74,0,0,0-1.212-.42h-1.8v4.938h.793V52.435h1.009a1.731,1.731,0,0,0,1.212-.422,1.523,1.523,0,0,0,0-2.188m-.579,1.687a.891.891,0,0,1-.648.221h-.994V50.109h.994a.889.889,0,0,1,.648.224.794.794,0,0,1,.228.592.779.779,0,0,1-.228.587" fill="#fff"/>
      <path d="M119.073,49.825a1.737,1.737,0,0,0-1.211-.42h-1.8v4.938h.793V52.435h1.01a1.727,1.727,0,0,0,1.211-.422,1.523,1.523,0,0,0,0-2.188m-.579,1.687a.891.891,0,0,1-.647.221h-.995V50.109h.995a.889.889,0,0,1,.647.224.794.794,0,0,1,.228.592.779.779,0,0,1-.228.587" fill="#fff"/>
      <polygon points="121.326 52.068 123.174 52.068 123.174 51.381 121.326 51.381 121.326 50.116 123.78 50.116 123.78 49.406 120.533 49.406 120.533 54.342 123.869 54.342 123.869 53.632 121.326 53.632 121.326 52.068" fill="#fff"/>
      <polygon points="127.291 52.083 125.219 49.324 124.943 49.324 124.943 54.343 125.735 54.343 125.735 51.246 127.157 53.101 127.426 53.101 128.839 51.246 128.839 54.343 129.631 54.343 129.631 49.324 129.363 49.324 127.291 52.083" fill="#fff"/>
      <polygon points="131.885 52.068 133.732 52.068 133.732 51.381 131.885 51.381 131.885 50.116 134.338 50.116 134.338 49.406 131.091 49.406 131.091 54.342 134.428 54.342 134.428 53.632 131.885 53.632 131.885 52.068" fill="#fff"/>
      <polygon points="138.778 52.734 135.779 49.324 135.502 49.324 135.502 54.342 136.294 54.342 136.294 51.007 139.301 54.425 139.571 54.425 139.571 49.406 138.778 49.406 138.778 52.734" fill="#fff"/>
      <polygon points="140.485 49.406 140.485 50.117 142.146 50.117 142.146 54.342 142.939 54.342 142.939 50.117 144.606 50.117 144.606 49.406 140.485 49.406" fill="#fff"/>
      <path d="M125.583,46.524c.351.038.584.119.584.322,0,.157-.143.225-.315.225a.9.9,0,0,1-.419-.1l-.1.336a1.139,1.139,0,0,0,.532.127c.388,0,.77-.171.77-.606a.593.593,0,0,0-.524-.561l.137-.24a2.512,2.512,0,0,0,1.151-.3,2.272,2.272,0,0,0,.872-.829l-.6-.441a1.787,1.787,0,0,1-2.783.333,1.931,1.931,0,0,1,0-2.612,1.788,1.788,0,0,1,2.783.334l.6-.441a2.322,2.322,0,0,0-.879-.83,2.661,2.661,0,0,0-3.078.429,2.566,2.566,0,0,0,0,3.632,2.506,2.506,0,0,0,1.551.719Z" fill="#fff"/>
      <polygon points="88.921 49.111 89.581 49.111 90.348 48.297 89.556 48.297 88.921 49.111" fill="#fff"/>
    </g>
    <g id="afd">
      <path d="M87.108,26.45,82.629,15.189,78.11,26.45Zm3.535,8.257-1.931-4.52h-12.2l-1.932,4.52H69.934L81.891,7.137h1.478l11.955,27.57Z" fill="#fff"/>
      <polygon points="117.056 7.589 117.056 11.491 103.99 11.491 103.99 19.589 117.056 19.589 117.056 23.529 103.99 23.529 103.99 34.707 99.635 34.707 99.635 7.589 117.056 7.589" fill="#fff"/>
      <path d="M125.722,11.533V30.8h4.108a10.3,10.3,0,0,0,7.52-2.711,9.376,9.376,0,0,0,2.793-6.985,9.031,9.031,0,0,0-2.793-6.942,10.419,10.419,0,0,0-7.52-2.632Zm4.151-3.945c4.477,0,8.053,1.233,10.724,3.739a12.8,12.8,0,0,1,4.026,9.779,12.892,12.892,0,0,1-4.07,9.819c-2.67,2.507-6.245,3.781-10.681,3.781h-8.5V7.589Z" fill="#fff"/>
    </g>
    <path id="circle-red" d="M32.791,0A28.71,28.71,0,1,0,61.5,28.71,28.71,28.71,0,0,0,32.791,0Zm0,49.052A20.342,20.342,0,1,1,53.133,28.71,20.342,20.342,0,0,1,32.791,49.052Z" fill="url(#gradient-whiteA)"/>
    <g id="circle-purple">
      <path d="M8.744,31.29A20.343,20.343,0,1,1,29.087,51.632,20.342,20.342,0,0,1,8.744,31.29M29.087,60A28.71,28.71,0,1,0,.377,31.29,28.71,28.71,0,0,0,29.087,60" fill="url(#gradient-whiteB)"/>
    </g>
  </g>
</svg>
