<svg id="icon-twitter-M" xmlns="http://www.w3.org/2000/svg" width="38" height="38" viewBox="0 0 38 38">
  <title>icon-twitter-M</title>
  <path d="M30.032,13.08a8.2,8.2,0,0,1-2.357.646,4.116,4.116,0,0,0,1.8-2.27,8.222,8.222,0,0,1-2.606,1,4.107,4.107,0,0,0-6.992,3.743,11.649,11.649,0,0,1-8.457-4.287,4.108,4.108,0,0,0,1.27,5.478,4.081,4.081,0,0,1-1.858-.513v.052a4.106,4.106,0,0,0,3.292,4.023,4.114,4.114,0,0,1-1.853.071,4.107,4.107,0,0,0,3.833,2.849,8.279,8.279,0,0,1-6.075,1.7A11.669,11.669,0,0,0,28,15.735q0-.267-.012-.531A8.334,8.334,0,0,0,30.032,13.08Z" fill="none" stroke="#2e2265" stroke-linecap="round" stroke-linejoin="round"/>
</svg>
